<svg width="26" height="28" viewBox="0 0 26 28" fill="none" xmlns="http://www.w3.org/2000/svg">
<path d="M12.9995 8.66663C14.414 8.66663 15.7706 9.22853 16.7708 10.2287C17.771 11.2289 18.3329 12.5855 18.3329 14C18.3329 15.4144 17.771 16.771 16.7708 17.7712C15.7706 18.7714 14.414 19.3333 12.9995 19.3333C11.585 19.3333 10.2285 18.7714 9.22829 17.7712C8.2281 16.771 7.6662 15.4144 7.6662 14C7.6662 12.5855 8.2281 11.2289 9.22829 10.2287C10.2285 9.22853 11.585 8.66663 12.9995 8.66663ZM12.9995 11.3333C12.2923 11.3333 11.614 11.6142 11.1139 12.1143C10.6138 12.6144 10.3329 13.2927 10.3329 14C10.3329 14.7072 10.6138 15.3855 11.1139 15.8856C11.614 16.3857 12.2923 16.6666 12.9995 16.6666C13.7068 16.6666 14.3851 16.3857 14.8851 15.8856C15.3852 15.3855 15.6662 14.7072 15.6662 14C15.6662 13.2927 15.3852 12.6144 14.8851 12.1143C14.3851 11.6142 13.7068 11.3333 12.9995 11.3333ZM10.3329 27.3333C9.99953 27.3333 9.71953 27.0933 9.6662 26.7733L9.17286 23.24C8.33286 22.9066 7.61286 22.4533 6.91953 21.92L3.59953 23.2666C3.3062 23.3733 2.9462 23.2666 2.7862 22.9733L0.119531 18.36C0.0379253 18.2226 0.00915624 18.0602 0.038604 17.9031C0.0680518 17.7461 0.1537 17.6051 0.279531 17.5066L3.09286 15.2933L2.99953 14L3.09286 12.6666L0.279531 10.4933C0.1537 10.3948 0.0680518 10.2539 0.038604 10.0968C0.00915624 9.93974 0.0379253 9.77734 0.119531 9.63996L2.7862 5.02663C2.9462 4.73329 3.3062 4.61329 3.59953 4.73329L6.91953 6.06663C7.61286 5.54663 8.33286 5.09329 9.17286 4.75996L9.6662 1.22663C9.71953 0.906626 9.99953 0.666626 10.3329 0.666626H15.6662C15.9995 0.666626 16.2795 0.906626 16.3329 1.22663L16.8262 4.75996C17.6662 5.09329 18.3862 5.54663 19.0795 6.06663L22.3995 4.73329C22.6929 4.61329 23.0529 4.73329 23.2129 5.02663L25.8795 9.63996C26.0529 9.93329 25.9729 10.2933 25.7195 10.4933L22.9062 12.6666L22.9995 14L22.9062 15.3333L25.7195 17.5066C25.9729 17.7066 26.0529 18.0666 25.8795 18.36L23.2129 22.9733C23.0529 23.2666 22.6929 23.3866 22.3995 23.2666L19.0795 21.9333C18.3862 22.4533 17.6662 22.9066 16.8262 23.24L16.3329 26.7733C16.2795 27.0933 15.9995 27.3333 15.6662 27.3333H10.3329ZM11.9995 3.33329L11.5062 6.81329C9.9062 7.14663 8.49286 7.99996 7.4662 9.18663L4.25286 7.79996L3.25286 9.53329L6.0662 11.6C5.53286 13.1555 5.53286 14.8444 6.0662 16.4L3.23953 18.48L4.23953 20.2133L7.47953 18.8266C8.5062 20 9.9062 20.8533 11.4929 21.1733L11.9862 24.6666H14.0129L14.5062 21.1866C16.0929 20.8533 17.4929 20 18.5195 18.8266L21.7595 20.2133L22.7595 18.48L19.9329 16.4133C20.4662 14.8533 20.4662 13.16 19.9329 11.6L22.7462 9.53329L21.7462 7.79996L18.5329 9.18663C17.4852 7.97372 16.064 7.14353 14.4929 6.82663L13.9995 3.33329H11.9995Z" fill="#737791"/>
</svg>
